# xmcd CD database file
#
# Track frame offsets:
#	150
#	10647
#	22272
#	53175
#	63822
#	74997
#	88050
#	96972
#	113145
#	136267
#	160950
#
# Disc length: 2299 seconds
#
# Revision: 2
# Processed by: cddbd v1.5.2PL0 Copyright (c) Steve Scherf et al.
# Submitted via: CDex 1.51
#
DISCID=9708f90b
DTITLE=Rita Engebretsen og Helge Borglund - Frem fra Glemselen kapittel 2
DYEAR=1975
DGENRE=Schillingsviser
TTITLE0=Rita Engebretsen - Lille Ragnhild
TTITLE1=Helge Borglund - Moder jag er træt
TTITLE2=Rita Engebretsen - Anna på søndagsskolen
TTITLE3=Helge Borglund - Vesleblakken
TTITLE4=Rigmor - Bruno
TTITLE5=Helge Borglund - Adjø farvel
TTITLE6=Rita Engebretsen - Elfsborgsvisen
TTITLE7=Helge Borglund - Lille vakre Anna
TTITLE8=Rita Engebretsen - Krigens offer
TTITLE9=Helge Borglund - Mjøsvise
TTITLE10=Rita Engebretsen - Farvel min venn
EXTD=YEAR: 1975
EXTT0=
EXTT1=
EXTT2=
EXTT3=
EXTT4=
EXTT5=
EXTT6=
EXTT7=
EXTT8=
EXTT9=
EXTT10=
PLAYORDER=
